<?xml version="1.0" standalone="no"?>
<!DOCTYPE svg PUBLIC "-//W3C//DTD SVG 20010904//EN"
 "http://www.w3.org/TR/2001/REC-SVG-20010904/DTD/svg10.dtd">
<svg version="1.0" xmlns="http://www.w3.org/2000/svg"
 width="260.000000pt" height="260.000000pt" viewBox="0 0 260.000000 260.000000"
 preserveAspectRatio="xMidYMid meet">
<metadata>
Created by potrace 1.11, written by Peter Selinger 2001-2013
</metadata>
<g transform="translate(0.000000,260.000000) scale(0.100000,-0.100000)"
fill="#000000" stroke="none">
<path d="M0 1410 l0 -1190 23 -2 c47 -3 84 4 152 29 83 29 131 27 176 -11 39
-33 73 -33 166 2 l72 27 -20 25 c-31 39 -75 129 -93 190 -44 146 -69 458 -47
585 14 86 49 195 62 195 5 0 57 -32 115 -71 58 -38 110 -69 116 -67 6 2 -38
50 -97 105 l-108 102 32 48 c62 94 62 95 154 100 60 4 120 -1 217 -17 117 -20
155 -22 287 -16 83 3 172 9 197 12 45 7 45 6 50 -27 3 -19 15 -141 26 -271 27
-315 22 -295 83 -313 28 -8 83 -15 122 -15 64 0 81 4 153 41 45 23 82 46 82
53 0 7 -16 39 -36 72 -29 48 -192 494 -181 498 68 28 69 28 119 -21 30 -30 44
-51 39 -57 -12 -14 14 -51 28 -42 15 10 67 -87 97 -179 32 -102 40 -217 25
-370 -25 -247 -76 -424 -149 -521 l-39 -50 71 -11 c39 -7 96 -23 126 -37 69
-32 100 -33 155 -1 48 28 59 30 195 20 66 -4 115 -2 160 8 l65 14 3 232 c2
224 2 232 -16 222 -21 -11 -62 11 -62 33 0 23 37 48 59 41 l21 -6 0 915 0 916
-1300 0 -1300 0 0 -1190z m438 1083 c5 -17 -26 -29 -40 -15 -6 6 -7 15 -3 22
9 14 37 9 43 -7z m854 6 c137 -28 294 -142 350 -254 32 -62 58 -149 58 -191
l0 -32 78 -7 c167 -14 170 -25 18 -77 l-108 -36 -23 -55 c-27 -67 -68 -106
-111 -107 -17 0 -53 -7 -80 -16 -68 -21 -356 -30 -506 -15 -85 8 -131 18 -170
36 -29 14 -60 25 -69 25 -22 0 -68 105 -82 187 -38 234 130 469 384 537 65 18
189 20 261 5z m848 -594 c15 -18 10 -45 -12 -59 -33 -20 -69 20 -54 60 7 18
50 18 66 -1z"/>
<path d="M1413 2146 c-27 -24 -28 -24 -9 -45 25 -28 81 -29 96 -2 14 27 13 37
-6 55 -22 23 -48 20 -81 -8z"/>
<path d="M1015 2106 c-8 -13 -13 -30 -10 -38 7 -16 47 -38 70 -38 19 0 55 36
55 54 0 47 -88 64 -115 22z"/>
</g>
</svg>
