<svg id="Layer_1" xmlns="http://www.w3.org/2000/svg" width="200" height="200" viewBox="0 0 200 200">
  <style>
    .st0{fill:#BF352F;} .st1{fill:#A66933;} .st2{fill:#C17B46;} .st3{opacity:0.3;fill:#231F20;} .st4{fill:#132326;} .st5{fill:#FFD99B;} .st6{fill:#EEB415;} .st7{fill:#D96B2B;} .st8{opacity:0.26;fill:#231F20;} .st9{fill:#FCF7EB;} .st10{fill:#EAEAEA;} .st11{fill:#8E0906;} .st12{fill:#DBA41B;} .st13{fill:#6A7F26;}
  </style>
  <circle class="st0" cx="100" cy="100" r="99"/>
  <path class="st1" d="M26.535 49.556H173.1v119.11H26.536z"/>
  <path class="st2" d="M26.49 63.413h146.567v1.934H26.49zM26.717 77.515h146.566v1.934H26.717zM26.378 91.617h146.566v1.934H26.378zM26.604 105.72H173.17v1.933H26.604zM26.434 119.82H173v1.935H26.434zM26.66 133.922h146.566v1.934H26.66zM26.32 148.024h146.567v1.934H26.32zM51.314 63.413V49.556"/>
  <path class="st2" d="M50.154 49.556h2.32v13.857h-2.32zM85.86 63.413V49.556M84.7 49.556h2.32v13.857H84.7zM120.665 63.413V49.556M119.505 49.556h2.32v13.857h-2.32zM152.892 63.413V49.556M151.732 49.556h2.32v13.857h-2.32zM33.91 79.204V65.347M32.75 65.347h2.32v13.857h-2.32zM68.458 79.204V65.347M67.298 65.347h2.32v13.857h-2.32zM103.263 79.204V65.347M102.103 65.347h2.32v13.857h-2.32zM135.49 79.204V65.347M134.33 65.347h2.32v13.857h-2.32zM51.314 92.34V78.48M50.154 78.482h2.32V92.34h-2.32zM85.86 92.34V78.48M84.7 78.482h2.32V92.34H84.7zM120.665 92.34V78.48M119.505 78.482h2.32V92.34h-2.32zM152.892 92.34V78.48M151.732 78.482h2.32V92.34h-2.32zM64.074 106.93V93.07M62.914 93.07h2.32v13.858h-2.32zM98.62 106.93V93.07M97.46 93.07h2.32v13.858h-2.32zM133.425 106.93V93.07M132.265 93.07h2.32v13.858h-2.32zM165.652 106.93V93.07M164.492 93.07h2.32v13.858h-2.32zM38.423 120.543v-13.858M37.263 106.685h2.32v13.857h-2.32zM72.97 120.543v-13.857M71.81 106.685h2.32v13.857h-2.32zM107.775 120.543v-13.857M106.615 106.685h2.32v13.857h-2.32zM140 120.543v-13.857M138.84 106.685h2.32v13.857h-2.32zM55.825 134.644v-13.857M54.665 120.787h2.32v13.857h-2.32z"/>
  <g>
    <path class="st2" d="M90.372 134.644v-13.857M89.212 120.787h2.32v13.857h-2.32z"/>
  </g>
  <g>
    <path class="st2" d="M125.177 134.644v-13.857M124.017 120.787h2.32v13.857h-2.32z"/>
  </g>
  <path class="st3" d="M26.48 159.064h146.68v9.13H26.48z"/>
  <g>
    <path class="st2" d="M157.404 134.644v-13.857M156.243 120.787h2.32v13.857h-2.32z"/>
  </g>
  <g>
    <path class="st2" d="M40.743 149.713v-13.857M39.583 135.856h2.32v13.857h-2.32z"/>
  </g>
  <g>
    <path class="st2" d="M75.29 149.713v-13.857M74.13 135.856h2.32v13.857h-2.32z"/>
  </g>
  <g>
    <path class="st2" d="M110.095 149.713v-13.857M108.935 135.856h2.32v13.857h-2.32z"/>
  </g>
  <path class="st1" d="M13.934 162.106h171.768v20.207H13.934z"/>
  <g>
    <path class="st2" d="M142.32 149.713v-13.857M141.16 135.856h2.32v13.857h-2.32z"/>
  </g>
  <path class="st4" d="M47.096 79.45H152.54v78.067H47.097z"/>
  <path class="st5" d="M58.697 149.958V91.05h82.243v58.908z"/>
  <path class="st3" d="M26.265 51.304h146.68v6.922H26.265z"/>
  <path class="st6" d="M88.498 143.906c-4.28-3.933-7.99-9.238-7.727-15.305.282-6.434 6.44-10.494 6.653-16.756.1 2.183.713 4.21 1.844 6.082-.128-8.473 9.338-13.39 9.862-21.71-.56 7.26 6.44 12.316 8.178 18.938 1.832-.536 2.857-1.752 3.077-3.65 5.913 9.893 15.555 20.116 6.022 30.64-7.633 8.424-19.437 9.548-27.91 1.762z"/>
  <path class="st7" d="M93.467 141.512c-3.095-2.238-5.195-6.005-5.023-9.95.182-4.182 4.185-6.822 4.323-10.893.065 1.42.465 2.737 1.2 3.953-.083-5.508 6.07-8.705 6.41-14.113-.362 4.72 4.188 8.006 5.317 12.31 1.19-.347 10.083 8.647 3.885 15.488-4.963 5.477-11.04 6.874-16.113 3.204z"/>
  <path class="st1" d="M20.03 45.596h158.686v7.92H20.03z"/>
  <g>
    <path class="st4" d="M69.872 148.636c-.726 0-1.456-.162-2.12-.495-1.658-.83-2.77-2.664-2.765-4.564.003-1.327.562-2.453 1.496-3.01.73-.438 1.69-.526 2.774-.255 1.29.323 2.15 1.062 2.357 2.03.183.85-.358 1.644-.987 1.988-.615.335-1.31.255-1.77-.204l1.092-1.095c-.028-.028-.082-.047-.11-.04.034-.007.132-.063.204-.167.05-.075.063-.136.058-.16-.092-.426-.69-.72-1.22-.852-.473-.117-1.136-.2-1.605.082-.546.326-.74 1.086-.743 1.687-.003 1.327.765 2.604 1.91 3.178 1.15.576 2.648.378 3.558-.474.755-.705 1.206-1.864 1.378-3.54.04-.385.067-.772.094-1.16.078-1.115.16-2.27.532-3.393.48-1.444 1.74-3.2 3.716-3.395l.15 1.54c-1.157.114-2.038 1.26-2.4 2.344-.31.936-.38 1.945-.455 3.014-.028.403-.057.807-.098 1.207-.214 2.066-.822 3.543-1.86 4.514-.858.8-2.017 1.222-3.188 1.222zM129.442 148.636c.726 0 1.456-.162 2.122-.495 1.657-.83 2.767-2.664 2.763-4.564-.003-1.327-.562-2.453-1.496-3.01-.73-.438-1.688-.526-2.773-.255-1.29.323-2.15 1.062-2.357 2.03-.183.85.358 1.644.987 1.988.615.335 1.31.255 1.77-.204l-1.092-1.095c.027-.028.082-.047.11-.04-.034-.007-.133-.063-.205-.167-.05-.075-.063-.136-.058-.16.092-.426.69-.72 1.22-.852.473-.117 1.136-.2 1.605.082.546.326.742 1.086.743 1.687.003 1.327-.764 2.604-1.91 3.178-1.15.576-2.647.378-3.558-.474-.755-.705-1.205-1.864-1.378-3.54-.04-.385-.067-.772-.094-1.16-.078-1.115-.16-2.27-.53-3.393-.48-1.444-1.743-3.2-3.718-3.395l-.15 1.54c1.157.114 2.038 1.26 2.4 2.344.31.936.38 1.945.455 3.014.03.403.057.807.098 1.207.213 2.066.82 3.543 1.86 4.514.857.8 2.017 1.222 3.187 1.222z"/>
    <path class="st4" d="M76.45 134.054h46.615v4.254H76.45z"/>
  </g>
  <g>
    <path class="st0" d="M62.183 76.77c-.385-.262-.783-.537-1.014-.94-.34-.592-.25-1.326-.144-1.998 1.204-7.54 3.532-14.897 6.885-21.756.15-.303.32-.627.627-.77.34-.16.738-.047 1.095.067L80.63 54.88l-4.775 16.978c2.82 1.39 5.435 3.195 7.734 5.34 1.193 1.112 2.373 2.483 2.387 4.115.022 2.71-3.124 4.344-5.833 4.45-1.61.064-3.23-.18-4.75-.714-2.087-.733-3.942-1.99-5.77-3.23l-7.44-5.05z"/>
    <path class="st8" d="M80.424 56.136l-.812 2.36s-3.863-1.315-6.534-2.36c-1.703-.666-2.53-.778-3.503-.778s-2.954-.502-2.954-.502l1.29-2.78 12.514 4.06z"/>
    <path class="st9" d="M66.62 47.574c-.963 1.413-1.472 3.653.888 5.457 1.63 1.246 3.66.868 5.454 1.332 2.935.758 9.725 4.802 10.868 1.093 1.23-3.99-.385-7.3-3.406-7.492-2.62-.167-10.022-5.935-13.803-.39z"/>
    <path class="st10" d="M82.272 55.747s-2.19-.146-3.454-.68-4.135-2.044-5.692-2.19c-1.556-.146-3.833-.075-4.524-.438-.69-.364-1.725-1.558-1.98-1.606-.258-.05-.622.25-.622.25s.873 2.686 5.508 3.042c0 0 1.925.254 6.54 2.13 0 0 3.024 1.266 4.84.427 0 0 .623-.798-.616-.936z"/>
    <path class="st11" d="M82.985 76.477s4.54 3.207 2.72 6.673c0 0-1.584 3.6-8.442 2.504l5.722-9.177zM64.364 78.418s3.658-5.157-2.96-7.557l-.647 3.958s-.195.908.583 1.427c.78.52 3.024 2.173 3.024 2.173z"/>
  </g>
  <g>
    <path class="st6" d="M109.26 76.6c-.385-.262-.783-.537-1.014-.94-.338-.592-.25-1.325-.143-1.998 1.204-7.54 3.533-14.897 6.886-21.756.147-.303.318-.627.624-.77.34-.16.738-.047 1.096.067 3.666 1.17 7.33 2.337 10.997 3.506l-4.775 16.978c2.82 1.39 5.435 3.195 7.735 5.34 1.194 1.113 2.374 2.483 2.387 4.115.022 2.71-3.124 4.344-5.832 4.45-1.61.064-3.23-.18-4.75-.714-2.087-.733-3.943-1.988-5.772-3.23l-7.44-5.05z"/>
    <path class="st8" d="M127.5 55.967l-.81 2.36s-3.864-1.316-6.535-2.36c-1.702-.666-2.53-.78-3.503-.78s-2.954-.5-2.954-.5l1.29-2.78 12.513 4.06z"/>
    <path class="st9" d="M113.698 47.404c-.963 1.413-1.473 3.653.888 5.457 1.63 1.246 3.66.87 5.454 1.332 2.934.758 9.724 4.803 10.868 1.093 1.23-3.99-.385-7.3-3.407-7.492-2.62-.166-10.02-5.935-13.802-.39z"/>
    <path class="st10" d="M129.35 55.577s-2.19-.146-3.454-.68c-1.265-.536-4.136-2.044-5.692-2.19-1.557-.146-3.834-.075-4.525-.438-.69-.364-1.725-1.558-1.982-1.606s-.62.25-.62.25.872 2.686 5.507 3.042c0 0 1.925.254 6.54 2.13 0 0 3.024 1.266 4.84.427 0 0 .623-.798-.615-.936z"/>
    <path class="st12" d="M130.062 76.307s4.542 3.207 2.72 6.673c0 0-1.584 3.6-8.44 2.504l5.72-9.177zM111.44 78.248s3.66-5.157-2.957-7.557l-.65 3.958s-.194.908.585 1.427c.778.52 3.023 2.173 3.023 2.173z"/>
  </g>
  <path class="st13" d="M101.443 14.364c-.13.58-15.275 12.955-15.275 12.955s9.433.773 8.97.966-13.16 9.088-12.515 9.088c.644 0 13.364.967 12.515 1.354s-9.933 6.868-9.933 6.868l33.015-.425-10.294-7.022 10.662-2.708-11.16-7.54 7.7-1.16-13.685-12.376z"/>
  <path class="st6" d="M101.662 6.412l1.582 3.204 3.536.514-2.56 2.494.605 3.522-3.163-1.663-3.163 1.663.603-3.522-2.558-2.494 3.536-.514z"/>
</svg>
