<svg class="snowman" xmlns="http://www.w3.org/2000/svg" width="312" height="345" viewBox="0 0 312 345">
  <style>
    .snowman-path-0{fill:#ffffff;} .snowman-path-1{fill:#FF7800;} .snowman-path-2{opacity:0.12;fill:#231F20;} .snowman-path-3{fill:#BF352F;} .snowman-path-4{fill:#8E0906;} .snowman-path-5{opacity:0.35;fill:#231F20;} .snowman-path-6{fill:#A66933;}
  </style>
  <ellipse class="snowman-path-0" cx="147.348" cy="68.749" rx="73.435" ry="67.985"/>
  <path class="snowman-path-1" d="M175.588 96.908c-4.247 1.036-8.357-2.885-9.547-9.176-1.11-5.882-1.79-12.47-.004-15.09 3.54-5.19 80.906-5.19 85.178 0 3.694 4.486-54.29 19.06-75.626 24.266z"/>
  <path d="M125.606 56.904c-7.325 9.445 15.226 15.39 15.454 2.732.14-7.757-15.336-7.906-14.884-2.04"/>
  <path class="snowman-path-2" d="M55.3 315.8s-1.666 4.294 0 8.87c1.666 4.575 7.393 11.018 14.266 10.41 6.873-.606 24.63 2.008 33.22 3.316s39.686 7.843 51.917 5.23c12.23-2.616 41.442-3.923 51.18-5.884 9.735-1.96 22.91 1.868 30.927-2.66 8.02-4.53 12.928-7.798 14.483-10.413 1.554-2.615 4.418-5.972-7.037-8.87-11.455-2.896-163.703-16.058-188.956 0z"/>
  <path d="M179.25 54.406c-2.828 3.965 12.358 11.672 14.606 1.365 2.124-9.736-15.196-9.432-15.694 1.273"/>
  <path class="snowman-path-0" d="M265.155 219.09c-7.006 123.418-49.723 110.542-111.06 110.542S44.678 342.508 43.035 219.09c-.813-61.045 49.723-110.54 111.06-110.54s114.52 49.588 111.06 110.54z"/>
  <path class="snowman-path-3" d="M73.906 136.735s.448-16.666 8.31-32.714c0 0 4.672-2.12 15.57 4.53s90.823 6.704 107.08-.538c0 0 6.822-9.345 9.17-3.99s7.922 5.858 6.747 15.327c-1.175 9.47 10.895 15.086 10.898 17.385.012 8.563-63.89 11.417-84.332 13.233s-45.93-5.94-57.346-6.343c-11.418-.403-20.854 4.265-21.278 0-.125-1.252 5.182-6.89 5.182-6.89z"/>
  <path class="snowman-path-4" d="M179.68 119.73s-9.146-8.365-2.59-7.193c6.556 1.172 22.84-7.876 29.712-4.097 6.873 3.78 30.7 89.24 36.34 97.768 5.642 8.53 11.284 18.79 6.348 18.088-4.937-.7-17.81 19.607-53.472 6.34-5.743-2.138-7.17-107.753-16.338-110.906z"/>
  <path class="snowman-path-5" d="M84.24 191.477c1.67-.083 5.82 1.302 5.468 2.72-.353 1.42-7.057 3.893-8.116 2.657-1.06-1.237-.822-3.936-.584-3.807.24.13 2.307-1.524 3.23-1.57z"/>
  <path class="snowman-path-6" d="M88.272 195.134c-2.076-1.053-42.21-40.495-42.21-40.495l5.535-11.588-8.715-6.317-4.432 13.51-31.83-23.94-5.536 10.43 22.143 13.51-15.223 5.086 5.535 9.338 11.763-8.645 58.125 39.11h4.844zM241.69 154.24c.374.513 32.028-25.03 32.028-25.03l25.43-8.823h11.936v5.918h-11.936l-14.532 4.46 11.418 1.04-1.038 5.513-9.86-.583-8.75.583 4.08 7.46-6.23 1.04-3.113-8.5-25.098 23.4-4.335-6.477z"/>
</svg>
