<svg id="Layer_1" xmlns="http://www.w3.org/2000/svg" xmlns:xlink="http://www.w3.org/1999/xlink" width="800" height="160" viewBox="0 0 800 160">
  <style>
    .st0{clip-path:url(#SVGID_2_);} .st1{fill:#F8F8F8;}
  </style>
  <defs>
    <path id="SVGID_1_" d="M0 0h800v160H0z"/>
  </defs>
  <clipPath id="SVGID_2_">
    <use xlink:href="#SVGID_1_" overflow="visible"/>
  </clipPath>
  <path class="st0 st1" d="M400 368c161.558 0 569-148.162 399.753-333.994-2.173-3.354-5.25-5.967-9.158-7.075-4.635-1.313-9.662-.392-14.335-1.565-4.07-1.02-7.566-3.545-11.335-5.385-23.94-11.686-51.998 5.667-78.594 3.952-16.026-1.034-32.657-8.97-47.427-2.675-8.29 3.532-14.785 11.25-23.7 12.576-8.25 1.228-16.08-3.365-23.577-7.02-21.39-10.422-46.005-14.136-69.528-10.49-6.184.96-12.425 2.416-18.634 1.624-5.242-.67-10.224-2.922-15.5-3.205-13.26-.71-24.023 10.794-37.01 13.558-18.573 3.95-36.6-10.545-55.57-9.616-13.788.675-26.155 9.434-39.93 10.35-11.294.748-22.184-3.84-33.35-5.68-26.255-4.33-54.705 6.383-79.074-4.28-4.878-2.134-9.45-5.09-14.623-6.35-22.022-5.37-45.193 21.12-65.16 10.41-4.653-2.495-8.148-6.72-12.64-9.494C128.918.258 102.5 26.408 77.11 24.04c-12.485-1.166-23.087-9.134-34.317-14.7S16.86.93 7.333 9.066C3.22 12.58 1.022 17.4.248 22.664-124 195.838 233.372 368 400 368z"/>
</svg>
